<svg width="36" height="36" viewBox="0 0 36 36" fill="none" xmlns="http://www.w3.org/2000/svg">
<path d="M34.8398 16.4414L19.5624 1.16014C19.1395 0.737595 18.5661 0.500244 17.9683 0.500244C17.3705 0.500244 16.7971 0.737595 16.3742 1.16014L13.1976 4.33436L17.2226 8.35936C19.3367 7.6453 21.3382 9.66951 20.6124 11.7719L24.4921 15.6515C27.1663 14.7297 29.2718 18.0734 27.2632 20.0805C25.1937 22.15 21.7781 19.8562 22.8882 17.1633L19.2671 13.5469V23.0664C21.2437 24.0461 21.0062 26.3359 19.9765 27.3633C19.4734 27.8661 18.7913 28.1485 18.08 28.1485C17.3688 28.1485 16.6866 27.8661 16.1835 27.3633C14.8109 25.9883 15.3187 23.6984 17.0624 22.9883V13.3789C15.4374 12.714 15.1406 10.9773 15.6062 9.86326L11.6382 5.89061L1.1601 16.3703C0.737361 16.7931 0.499878 17.3665 0.499878 17.9644C0.499878 18.5623 0.737361 19.1358 1.1601 19.5586L16.4421 34.8398C16.8649 35.2623 17.4382 35.4997 18.0359 35.4997C18.6336 35.4997 19.2068 35.2623 19.6296 34.8398L34.8398 19.6297C35.2625 19.2068 35.5 18.6334 35.5 18.0355C35.5 17.4376 35.2625 16.8642 34.8398 16.4414Z" fill="#F8D394"/>
</svg>
