<svg width="37" height="35" viewBox="0 0 37 35" fill="none" xmlns="http://www.w3.org/2000/svg">
<path d="M12.567 27.9422C12.567 28.0828 12.4008 28.1953 12.1912 28.1953C11.9527 28.2164 11.7865 28.1039 11.7865 27.9422C11.7865 27.8016 11.9527 27.6891 12.1623 27.6891C12.3791 27.668 12.567 27.7805 12.567 27.9422ZM10.3195 27.6258C10.2689 27.7664 10.4135 27.9281 10.6303 27.9703C10.8182 28.0406 11.035 27.9703 11.0783 27.8297C11.1217 27.6891 10.9844 27.5273 10.7676 27.4641C10.5797 27.4148 10.3701 27.4852 10.3195 27.6258ZM13.5137 27.5063C13.3041 27.5555 13.1596 27.6891 13.1812 27.8508C13.2029 27.9914 13.3908 28.0828 13.6076 28.0336C13.8172 27.9844 13.9617 27.8508 13.94 27.7102C13.9184 27.5766 13.7232 27.4852 13.5137 27.5063ZM18.2688 0.5625C8.24551 0.5625 0.578125 7.96641 0.578125 17.7188C0.578125 25.5164 5.62227 32.1891 12.8271 34.5375C13.7521 34.6992 14.0773 34.1438 14.0773 33.6867C14.0773 33.2508 14.0557 30.8461 14.0557 29.3695C14.0557 29.3695 8.99707 30.4242 7.93477 27.2742C7.93477 27.2742 7.11094 25.2281 5.92578 24.7008C5.92578 24.7008 4.2709 23.5969 6.04141 23.618C6.04141 23.618 7.84082 23.7586 8.83086 25.432C10.4135 28.1461 13.0656 27.3656 14.099 26.9016C14.2652 25.7766 14.735 24.9961 15.2553 24.532C11.2156 24.0961 7.13984 23.5266 7.13984 16.7625C7.13984 14.8289 7.68906 13.8586 8.84531 12.6211C8.65742 12.1641 8.04316 10.2797 9.0332 7.84687C10.5436 7.38984 14.0195 9.74531 14.0195 9.74531C15.4648 9.35156 17.0186 9.14766 18.5578 9.14766C20.0971 9.14766 21.6508 9.35156 23.0961 9.74531C23.0961 9.74531 26.5721 7.38281 28.0824 7.84687C29.0725 10.2867 28.4582 12.1641 28.2703 12.6211C29.4266 13.8656 30.1348 14.8359 30.1348 16.7625C30.1348 23.5477 25.8783 24.0891 21.8387 24.532C22.5035 25.0875 23.0672 26.1422 23.0672 27.7945C23.0672 30.1641 23.0455 33.0961 23.0455 33.6727C23.0455 34.1297 23.3779 34.6852 24.2957 34.5234C31.5223 32.1891 36.4219 25.5164 36.4219 17.7188C36.4219 7.96641 28.292 0.5625 18.2688 0.5625ZM7.60234 24.8133C7.5084 24.8836 7.53008 25.0453 7.65293 25.1789C7.76855 25.2914 7.93477 25.3406 8.02871 25.2492C8.12266 25.1789 8.10098 25.0172 7.97813 24.8836C7.8625 24.7711 7.69629 24.7219 7.60234 24.8133ZM6.82188 24.2437C6.77129 24.3352 6.84355 24.4477 6.98809 24.518C7.10371 24.5883 7.24824 24.5672 7.29883 24.4688C7.34941 24.3773 7.27715 24.2648 7.13262 24.1945C6.98809 24.1523 6.87246 24.1734 6.82188 24.2437ZM9.16328 26.7469C9.04766 26.8383 9.09102 27.0492 9.25723 27.1828C9.42344 27.3445 9.63301 27.3656 9.72695 27.2531C9.8209 27.1617 9.77754 26.9508 9.63301 26.8172C9.47402 26.6555 9.25723 26.6344 9.16328 26.7469ZM8.33945 25.7133C8.22383 25.7836 8.22383 25.9664 8.33945 26.1281C8.45508 26.2898 8.6502 26.3602 8.74414 26.2898C8.85977 26.1984 8.85977 26.0156 8.74414 25.8539C8.64297 25.6922 8.45508 25.6219 8.33945 25.7133Z" fill="#F8D394"/>
</svg>
