<svg width="417" height="459" viewBox="0 0 417 459" fill="none" xmlns="http://www.w3.org/2000/svg">
<path d="M189.598 4.90338C201.123 -1.62005 215.819 -1.64885 227.056 4.90338L399.134 101.862C409.896 107.91 417.1 119.906 416.999 132.305V326.712C417.071 339.629 409.161 351.884 397.809 357.817L226.653 454.329C220.799 457.563 214.185 459.171 207.499 458.986C200.813 458.801 194.299 456.83 188.632 453.278L137.271 423.613C133.77 421.525 129.837 419.869 127.359 416.484C129.549 413.547 133.439 413.172 136.608 411.876C143.754 409.601 150.295 406.116 156.865 402.43C158.522 401.278 160.553 401.71 162.138 402.746L205.935 428.062C209.062 429.863 212.231 427.486 214.911 425.974L382.969 331.176C385.044 330.168 386.197 327.979 386.024 325.704V133.169C386.254 130.577 384.77 128.215 382.422 127.164L211.698 31.0691C210.714 30.3889 209.547 30.0234 208.351 30.0208C207.154 30.0182 205.986 30.3788 204.999 31.0547L34.5199 127.351C32.2147 128.402 30.6299 130.735 30.9181 133.327V325.862C30.7164 328.137 31.9266 330.283 34.0156 331.262L79.5708 356.967C88.1286 361.575 98.6314 364.167 108.054 360.783C112.177 359.23 115.726 356.454 118.227 352.828C120.727 349.201 122.059 344.897 122.043 340.493L122.086 149.11C121.884 146.273 124.564 143.926 127.316 144.214H149.215C152.096 144.142 154.358 147.195 153.969 150.046L153.926 342.639C153.94 359.746 146.909 378.352 131.076 386.747C111.569 396.828 87.4515 394.711 68.1748 385.019L19.1907 357.946C7.66506 352.186 -0.0715366 339.744 0.000498795 326.841V132.434C0.0484215 126.116 1.78626 119.925 5.03385 114.504C8.28145 109.083 12.9206 104.628 18.4704 101.603L189.598 4.90338ZM239.216 139.663C264.097 138.223 290.735 138.713 313.124 150.968C330.456 160.357 340.065 180.057 340.382 199.325C339.892 201.917 337.184 203.357 334.706 203.17C327.502 203.155 320.27 203.27 313.037 203.126C309.969 203.242 308.197 200.419 307.808 197.712C305.733 188.496 300.705 179.38 292.032 174.93C278.72 168.263 263.275 168.594 248.753 168.738C238.149 169.314 226.753 170.221 217.778 176.442C210.862 181.166 208.788 190.843 211.251 198.36C213.557 203.875 219.939 205.647 225.14 207.288C255.135 215.122 286.903 214.488 316.337 224.67C328.511 228.875 340.425 237.054 344.603 249.799C350.049 266.878 347.672 287.297 335.527 301.007C325.672 312.297 311.323 318.287 296.988 321.772C277.927 326.02 258.161 326.121 238.812 324.22C220.616 322.147 201.685 317.366 187.638 304.981C175.623 294.555 169.774 278.312 170.35 262.644C170.494 259.994 173.13 258.151 175.68 258.367H197.291C200.201 258.165 202.334 260.671 202.478 263.407C203.817 272.047 207.117 281.408 214.781 286.448C229.563 295.981 248.105 295.319 265.019 295.592C279.037 294.973 294.769 294.786 306.223 285.512C312.274 280.227 314.046 271.399 312.418 263.796C310.646 257.373 303.774 254.392 298.011 252.275C268.404 242.915 236.277 246.314 206.958 235.715C195.058 231.51 183.547 223.561 178.98 211.335C172.597 194.054 175.522 172.641 188.964 159.392C201.93 146.216 220.947 141.132 238.956 139.318L239.216 139.663Z" fill="#F8D394"/>
</svg>
