<svg width="605" height="605" viewBox="0 0 605 605" fill="none" xmlns="http://www.w3.org/2000/svg">
<path d="M156.559 83.4813C156.559 42.764 167.727 20.6135 229.386 10.0658C271.247 2.89247 324.922 1.99581 374.988 10.0658C414.532 16.447 447.816 45.2447 447.816 83.4813V217.816C447.816 257.215 415.502 289.489 374.988 289.489H229.386C179.97 289.489 138.323 330.682 138.323 377.251V441.703H88.2592C45.9117 441.703 21.2559 411.851 10.8983 370.078C-3.07287 313.959 -2.47979 280.523 10.8983 226.777C22.4971 179.89 59.5588 155.151 101.909 155.151H302.213V137.218H156.556V83.4784L156.559 83.4813Z" fill="#F8D394"/>
<path d="M447.819 513.379C447.819 554.097 411.674 574.72 374.991 585.005C319.804 600.511 275.512 598.138 229.389 585.005C190.869 574.036 156.562 551.619 156.562 513.379V379.045C156.562 340.384 189.524 307.372 229.389 307.372H374.991C423.49 307.372 466.054 266.394 466.054 217.816V155.157H520.649C563.051 155.157 583.015 185.958 593.476 226.783C608.04 283.482 608.688 325.885 593.476 370.084C578.75 413.016 562.996 441.709 520.649 441.709H302.216V459.643H447.819V513.379Z" fill="#F8D394"/>
<path d="M192.972 74.5685C192.972 59.6959 205.164 47.6686 220.273 47.6686C235.323 47.6686 247.573 59.6929 247.573 74.5685C247.573 89.3933 235.326 101.414 220.273 101.414C205.17 101.414 192.972 89.3903 192.972 74.5685ZM356.804 522.295C356.804 507.47 369.051 495.449 384.105 495.449C399.207 495.449 411.405 507.473 411.405 522.295C411.405 537.168 399.213 549.195 384.105 549.195C369.054 549.195 356.804 537.171 356.804 522.295Z" fill="#303039"/>
</svg>
