<svg width="65" height="58" viewBox="0 0 65 58" fill="none" xmlns="http://www.w3.org/2000/svg">
<path d="M32.6342 34.7631C35.7905 34.7631 38.3492 32.2044 38.3492 29.048C38.3492 25.8917 35.7905 23.333 32.6342 23.333C29.4779 23.333 26.9192 25.8917 26.9192 29.048C26.9192 32.2044 29.4779 34.7631 32.6342 34.7631Z" fill="#F8D394"/>
<path fill-rule="evenodd" clip-rule="evenodd" d="M32.6342 17.4282C40.3074 17.4282 47.4356 18.5292 52.8103 20.3795C59.2859 22.6089 63.2674 25.9881 63.2674 29.048C63.2674 32.2367 59.0478 35.8266 52.0938 38.1306C46.8364 39.8725 39.918 40.7818 32.6342 40.7818C25.1663 40.7818 18.0946 39.9283 12.778 38.1115C6.05145 35.8124 2 32.1759 2 29.048C2 26.013 5.80151 22.6599 12.1862 20.4339C17.5808 18.553 24.885 17.4282 32.6332 17.4282H32.6342Z" stroke="#F8D394" stroke-width="2.73408"/>
<path fill-rule="evenodd" clip-rule="evenodd" d="M22.5189 23.2716C26.3523 16.6246 30.867 10.9997 35.1549 7.26811C40.3212 2.77214 45.2377 1.01139 47.8882 2.53986C50.6506 4.1328 51.6524 9.58171 50.1743 16.7566C49.0578 22.1813 46.3882 28.6284 42.7494 34.9383C39.0185 41.4075 34.7465 47.1072 30.517 50.8041C25.1651 55.4826 19.9908 57.1757 17.2812 55.613C14.652 54.0979 13.6465 49.1287 14.9078 42.4857C15.9735 36.8728 18.648 29.9835 22.5177 23.2715L22.5189 23.2716Z" stroke="#F8D394" stroke-width="2.73408"/>
<path fill-rule="evenodd" clip-rule="evenodd" d="M22.5284 34.9552C18.6841 28.3158 16.0668 21.5939 14.9743 16.0155C13.6592 9.29419 14.5891 4.15526 17.2372 2.62235C19.9968 1.02474 25.2179 2.87799 30.6957 7.74192C34.8374 11.4193 39.0903 16.9509 42.7397 23.2547C46.4813 29.7178 49.2856 36.2655 50.3765 41.7761C51.7568 48.7495 50.6396 54.0776 47.9325 55.6447C45.3059 57.1653 40.4992 55.5554 35.374 51.1449C31.0435 47.4185 26.4105 41.6607 22.5284 34.9551V34.9552Z" stroke="#F8D394" stroke-width="2.73408"/>
</svg>
