<svg width="341" height="204" viewBox="0 0 341 204" fill="none" xmlns="http://www.w3.org/2000/svg">
<path fill-rule="evenodd" clip-rule="evenodd" d="M85.25 68C96.6149 22.6684 125.035 0 170.5 0C238.7 0 247.225 51 281.325 59.5C304.06 65.1684 323.95 56.6684 341 34C329.635 79.3316 301.215 102 255.75 102C187.55 102 179.025 51 144.925 42.5C122.19 36.8316 102.3 45.3316 85.25 68ZM0 170C11.3649 124.668 39.7851 102 85.25 102C153.45 102 161.975 153 196.075 161.5C218.81 167.168 238.7 158.668 255.75 136C244.385 181.332 215.965 204 170.5 204C102.3 204 93.775 153 59.675 144.5C36.9399 138.832 17.05 147.332 0 170Z" fill="#F8D394"/>
</svg>
