<svg width="270" height="270" viewBox="0 0 270 270" fill="none" xmlns="http://www.w3.org/2000/svg">
<path fill-rule="evenodd" clip-rule="evenodd" d="M270 50C270 22.404 247.596 0 220 0H50C22.404 0 0 22.404 0 50V220C0 247.596 22.404 270 50 270H220C247.596 270 270 247.596 270 220V50Z" fill="#F8D394"/>
<path fill-rule="evenodd" clip-rule="evenodd" d="M167.168 214.629V240.996C171.439 243.211 176.66 244.846 182.461 245.953C188.262 247.061 194.59 247.588 200.918 247.588C207.246 247.588 213.047 247.008 218.848 245.795C224.648 244.582 229.395 242.578 233.613 239.994C237.885 237.199 241.523 233.666 243.633 228.92C245.742 224.174 247.377 218.9 247.377 212.045C247.377 207.246 246.639 203.08 245.215 199.389C243.791 195.697 241.734 192.533 238.887 189.896C236.197 187.102 233.086 184.623 229.395 182.514C225.703 180.404 221.484 178.189 216.738 176.186C213.258 174.762 210.41 173.391 207.246 172.02C204.504 170.648 202.131 169.277 200.391 167.906C198.439 166.482 196.963 165.006 195.908 163.477C194.854 161.895 194.326 160.154 194.326 158.203C194.326 156.41 194.796 154.775 195.75 153.299C196.704 151.822 198.018 150.609 199.705 149.555C201.393 148.5 203.502 147.709 206.033 147.129C208.512 146.549 211.254 146.285 214.471 146.285C216.686 146.285 219.006 146.449 221.326 146.781C223.752 147.113 226.23 147.625 228.709 148.31C231.188 148.996 233.613 149.839 236.092 150.894C238.412 151.949 240.574 153.162 242.42 154.533V129.748C238.412 128.218 233.982 127.058 229.236 126.32C224.49 125.582 219.217 125.212 212.889 125.212C206.561 125.212 200.76 125.898 194.959 127.216C189.158 128.535 184.412 130.644 180.193 133.545C175.922 136.392 172.811 139.873 170.174 144.619C167.695 149.048 166.482 154.111 166.482 160.439C166.482 168.349 168.75 175.205 173.338 180.478C177.873 186.279 184.939 190.498 193.904 194.716C197.543 196.193 200.76 197.67 203.924 199.093C207.088 200.517 209.725 201.994 211.834 203.523C214.102 205.052 215.895 206.74 217.107 208.533C218.426 210.326 219.111 212.435 219.111 214.861C219.111 216.548 218.7 218.13 217.898 219.607C217.097 221.084 215.842 222.349 214.154 223.404C212.467 224.459 210.41 225.302 207.826 225.935C205.348 226.515 202.553 226.832 198.861 226.832C193.061 226.832 187.26 225.83 181.986 223.826C176.186 221.822 170.912 218.816 166.166 214.861L167.168 214.629ZM122.871 149.766H156.621V128.145H62.2271V149.766H95.9771V246.27H122.871V149.766Z" fill="#303039"/>
</svg>
