<svg width="36" height="36" viewBox="0 0 36 36" fill="none" xmlns="http://www.w3.org/2000/svg">
<path d="M23.3359 22.3695C23.3359 25.6828 20.2328 25.6062 19.9047 25.6062H13.5852V19.2242H19.9047C23.2297 19.2242 23.3359 21.7164 23.3359 22.3695ZM19.418 16.6563C19.4703 16.6563 22.4211 16.7344 22.4211 13.8195C22.4211 12.607 22.1469 11.0172 19.418 11.0172H13.5852V16.6563H19.418ZM35.5 6.33359V29.6664C35.4955 31.2122 34.8794 32.6933 33.7864 33.7864C32.6933 34.8794 31.2122 35.4955 29.6664 35.5H6.33359C4.78782 35.4955 3.30666 34.8794 2.21363 33.7864C1.1206 32.6933 0.504534 31.2122 0.5 29.6664L0.5 6.33359C0.504534 4.78782 1.1206 3.30666 2.21363 2.21363C3.30666 1.1206 4.78782 0.504534 6.33359 0.5H29.6664C31.2122 0.504534 32.6933 1.1206 33.7864 2.21363C34.8794 3.30666 35.4955 4.78782 35.5 6.33359ZM26.9102 22.8328C26.9102 21.1477 26.3906 18.2789 23.0781 17.5711V17.5141C24.868 16.75 25.9953 15.307 25.9953 13.1672C25.9953 12.6203 26.1516 8.10625 19.9328 8.10625H10.0109V28.5227C20.0289 28.5227 20.9383 28.6539 22.7922 28.0766C23.9023 27.7313 26.9102 26.6719 26.9102 22.8328Z" fill="#F8D394"/>
</svg>
