<svg width="36" height="36" viewBox="0 0 36 36" fill="none" xmlns="http://www.w3.org/2000/svg">
<path d="M31.75 0.5H4.25C2.17969 0.5 0.5 2.17969 0.5 4.25V31.75C0.5 33.8203 2.17969 35.5 4.25 35.5H31.75C33.8203 35.5 35.5 33.8203 35.5 31.75V4.25C35.5 2.17969 33.8203 0.5 31.75 0.5ZM19.5469 27.7969C19.5469 31.2031 17.5469 32.7578 14.6328 32.7578C12 32.7578 10.4766 31.3984 9.69531 29.75L12.375 28.1328C12.8906 29.0469 13.3594 29.8203 14.4922 29.8203C15.5703 29.8203 16.2578 29.3984 16.2578 27.75V16.5703H19.5469V27.7969ZM27.3281 32.7578C24.2734 32.7578 22.2969 31.3047 21.3359 29.3984L24.0156 27.8516C24.7188 29 25.6406 29.8516 27.2578 29.8516C28.6172 29.8516 29.4922 29.1719 29.4922 28.2266C29.4922 27.1016 28.6016 26.7031 27.0937 26.0391L26.2734 25.6875C23.8984 24.6797 22.3281 23.4062 22.3281 20.7266C22.3281 18.2578 24.2109 16.3828 27.1406 16.3828C29.2344 16.3828 30.7344 17.1094 31.8125 19.0156L29.25 20.6562C28.6875 19.6484 28.0781 19.25 27.1328 19.25C26.1719 19.25 25.5625 19.8594 25.5625 20.6562C25.5625 21.6406 26.1719 22.0391 27.5859 22.6563L28.4063 23.0078C31.2031 24.2031 32.7734 25.4297 32.7734 28.1797C32.7734 31.1328 30.4453 32.7578 27.3281 32.7578Z" fill="#F8D394"/>
</svg>
