<svg width="35" height="35" viewBox="0 0 35 35" fill="none" xmlns="http://www.w3.org/2000/svg">
<path d="M11.0424 18.2709C11.2064 19.8692 11.9575 21.35 13.1502 22.4266C14.3429 23.5032 15.8925 24.0991 17.4993 24.0991C19.106 24.0991 20.6557 23.5032 21.8484 22.4266C23.0411 21.35 23.7921 19.8692 23.9561 18.2709C23.9792 18.0504 23.9896 17.8288 23.9874 17.6071C23.9947 16.7505 23.8323 15.9009 23.5096 15.1074C23.1868 14.3138 22.7101 13.592 22.107 12.9837C21.5038 12.3754 20.7861 11.8925 19.9954 11.563C19.2046 11.2335 18.3564 11.0638 17.4998 11.0638C16.6431 11.0638 15.7949 11.2335 15.0041 11.563C14.2134 11.8925 13.4957 12.3754 12.8926 12.9837C12.2894 13.592 11.8127 14.3138 11.4899 15.1074C11.1672 15.9009 11.0048 16.7505 11.0121 17.6071C11.01 17.8288 11.0202 18.0504 11.0424 18.2709ZM6.42449e-09 17.5005C-9.37591e-05 14.0393 1.0262 10.6558 2.94908 7.77782C4.87197 4.89989 7.60509 2.6568 10.8028 1.33221C14.0005 0.00761458 17.5192 -0.338984 20.914 0.336242C24.3087 1.01147 27.4269 2.67819 29.8744 5.12564C32.3218 7.57308 33.9885 10.6913 34.6638 14.086C35.339 17.4807 34.9924 20.9995 33.6678 24.1972C32.3432 27.3949 30.1001 30.128 27.2222 32.0509C24.3442 33.9738 20.9607 35.0001 17.4995 35C12.8585 34.9995 8.40773 33.1556 5.12605 29.874C1.84436 26.5923 0.000502851 22.1415 6.42449e-09 17.5005Z" fill="#F8D394"/>
</svg>
